<svg width="40" height="40" viewBox="0 0 40 40" fill="none" xmlns="http://www.w3.org/2000/svg">
<rect width="40" height="40" rx="20" fill="#FF8500"/>
<path d="M33.6059 8H21.6133C20.8443 8 20.2188 8.61586 20.2188 9.37285V15.4655C20.2188 16.2226 20.8444 16.8384 21.6133 16.8384H22.6663V19.257C22.6663 19.4242 22.7654 19.576 22.9199 19.6456C22.9776 19.6715 23.0391 19.6843 23.1002 19.6843C23.2025 19.6843 23.3037 19.6487 23.3839 19.5802L26.607 16.8384H33.6057C34.3748 16.8384 35.0002 16.2224 35.0002 15.4655V9.37285C35.0003 8.6158 34.3748 8 33.6059 8ZM25.069 12.1645L24.4286 12.7792L24.5798 13.6471C24.5907 13.7098 24.5646 13.773 24.5123 13.8104C24.4829 13.8315 24.4479 13.8422 24.4127 13.8422C24.3859 13.8422 24.3587 13.8359 24.3339 13.8231L23.5422 13.4133L22.7507 13.8231C22.6935 13.8526 22.6242 13.8477 22.5721 13.8104C22.5199 13.7731 22.4938 13.7098 22.5047 13.6471L22.6559 12.7792L22.0154 12.1645C21.9693 12.1201 21.9525 12.0538 21.9724 11.9935C21.9923 11.9331 22.0454 11.889 22.1093 11.8799L22.9944 11.7533L23.3902 10.9636C23.4189 10.9066 23.4778 10.8706 23.5422 10.8706C23.6067 10.8706 23.6658 10.9066 23.6942 10.9636L24.0901 11.7533L24.975 11.8799C25.039 11.889 25.0918 11.9331 25.112 11.9935C25.1319 12.0538 25.1152 12.1202 25.069 12.1645ZM29.1364 12.1645L28.4959 12.7792L28.6472 13.6471C28.658 13.7098 28.6319 13.773 28.5797 13.8104C28.5503 13.8315 28.5154 13.8422 28.4801 13.8422C28.4532 13.8422 28.4262 13.8359 28.4011 13.8231L27.6095 13.4133L26.818 13.8231C26.7608 13.8526 26.6917 13.8477 26.6395 13.8104C26.5872 13.7731 26.5611 13.7098 26.572 13.6471L26.7232 12.7792L26.0828 12.1645C26.0367 12.1201 26.0199 12.0538 26.0399 11.9935C26.0597 11.9331 26.1126 11.889 26.1768 11.8799L27.0618 11.7533L27.4576 10.9636C27.4862 10.9066 27.5452 10.8706 27.6095 10.8706C27.6741 10.8706 27.7329 10.9066 27.7615 10.9636L28.1574 11.7533L29.0424 11.8799C29.1064 11.889 29.1593 11.9331 29.1793 11.9935C29.1993 12.0538 29.1825 12.1202 29.1364 12.1645ZM33.2037 12.1645L32.5632 12.7792L32.7142 13.6471C32.7253 13.7098 32.6993 13.773 32.647 13.8104C32.6174 13.8315 32.5826 13.8422 32.5472 13.8422C32.5203 13.8422 32.4934 13.8359 32.4683 13.8231L31.6767 13.4133L30.885 13.8231C30.828 13.8526 30.7588 13.8477 30.7066 13.8104C30.6543 13.7731 30.6283 13.7098 30.6391 13.6471L30.7904 12.7792L30.1499 12.1645C30.1039 12.1201 30.0872 12.0538 30.107 11.9935C30.1268 11.9331 30.18 11.889 30.2439 11.8799L31.129 11.7533L31.5249 10.9636C31.5533 10.9066 31.6124 10.8706 31.6767 10.8706C31.7411 10.8706 31.8003 10.9066 31.8288 10.9636L32.2247 11.7533L33.1097 11.8799C33.1736 11.889 33.2264 11.9331 33.2466 11.9935C33.2665 12.0538 33.2499 12.1202 33.2037 12.1645Z" fill="#ffffff"/>
<path d="M14.5877 12.2059C11.6546 12.2059 10.0313 13.7024 10.0609 16.586C10.104 20.5353 11.8084 22.9311 14.5877 22.8893C14.5877 22.8893 19.1122 23.0699 19.1122 16.586C19.1122 13.7024 17.5835 12.2059 14.5877 12.2059Z" fill="#ffffff"/>
<path d="M22.5902 25.8869L18.0693 24.1122L17.0107 23.2338C16.7311 23.0012 16.3181 23.0183 16.0586 23.2721L14.5868 24.7133L13.1107 23.2717C12.8512 23.0183 12.4387 23.0019 12.1595 23.2338L11.1006 24.1122L6.5797 25.8871C5.12388 26.4579 5.12514 31.5341 5 32H24.1721C24.0472 31.5351 24.0466 26.4572 22.5902 25.8869Z" fill="#ffffff"/>
</svg>
