<svg width="40" height="40" viewBox="0 0 40 40" fill="none" xmlns="http://www.w3.org/2000/svg">
<rect width="40" height="40" rx="20" fill="#FF8500"/>
<path d="M22.6738 27.5148L24.0061 27.9634L27.5833 25.7644H25.5214L22.6738 27.5148Z" fill="#ffffff"/>
<path d="M21.7842 18.613L25.4618 20.8737L26.794 20.4251L23.8461 18.613H21.7842Z" fill="#ffffff"/>
<path d="M17.3222 27.5146L14.4751 25.7644H12.4131L15.99 27.9631L17.3222 27.5146Z" fill="#ffffff"/>
<path d="M18.2173 18.613H16.1554L13.207 20.4253L14.5393 20.8739L18.2173 18.613Z" fill="#ffffff"/>
<path d="M20.0015 8C18.3744 8 17.4739 8.71197 17.4905 10.0838C17.5142 11.9627 18.4598 13.1025 20.0015 13.0826C20.0015 13.0826 22.5117 13.1685 22.5117 10.0838C22.5117 8.71185 21.6635 8 20.0015 8Z" fill="#ffffff"/>
<path d="M24.4398 14.5085L21.9318 13.6642L21.3447 13.2463C21.1896 13.1356 20.9603 13.1438 20.8167 13.2646L20 13.9501L19.181 13.2644C19.0371 13.1438 18.8082 13.136 18.6533 13.2464L18.066 13.6643L15.558 14.5086C14.7503 14.7802 14.7511 17.1952 14.6816 17.4169H25.3173C25.248 17.1958 25.2478 14.7799 24.4398 14.5085Z" fill="#ffffff"/>
<path d="M10.3208 20.4983C10.3208 20.4983 12.8309 20.5842 12.8309 17.4995C12.8309 16.1276 11.9828 15.4157 10.3208 15.4157C8.69377 15.4157 7.79322 16.1276 7.8098 17.4995C7.83346 19.3784 8.77903 20.5183 10.3208 20.4983Z" fill="#ffffff"/>
<path d="M14.7582 21.9243L12.2502 21.0801L11.663 20.6622C11.5078 20.5514 11.2786 20.5596 11.1349 20.6803L10.3184 21.3659L9.49934 20.6801C9.35549 20.5595 9.12659 20.5517 8.97169 20.6621L8.38435 21.08L5.87634 21.9243C5.06862 22.1959 5.06944 24.6109 5 24.8326H15.6357C15.5665 24.6115 15.5662 22.1957 14.7582 21.9243Z" fill="#ffffff"/>
<path d="M29.684 20.4983C29.684 20.4983 32.1941 20.5842 32.1941 17.4995C32.1941 16.1276 31.346 15.4157 29.684 15.4157C28.0569 15.4157 27.1564 16.1276 27.1731 17.4995C27.1966 19.3784 28.1422 20.5183 29.684 20.4983Z" fill="#ffffff"/>
<path d="M34.1224 21.9243L31.6144 21.0801L31.0272 20.6622C30.8722 20.5514 30.6429 20.5596 30.4992 20.6803L29.6826 21.3659L28.8636 20.6801C28.7198 20.5595 28.4908 20.5517 28.3359 20.6621L27.7487 21.08L25.2406 21.9243C24.4329 22.1959 24.4337 24.6108 24.3643 24.8326H34.9999C34.9306 24.6115 34.9303 22.1957 34.1224 21.9243Z" fill="#ffffff"/>
<path d="M20.0015 22.5831C18.3744 22.5831 17.4739 23.295 17.4905 24.6669C17.5142 26.5459 18.4598 27.6856 20.0015 27.6657C20.0015 27.6657 22.5117 27.7516 22.5117 24.6669C22.5117 23.295 21.6635 22.5831 20.0015 22.5831Z" fill="#ffffff"/>
<path d="M24.4398 29.0918L21.9318 28.2475L21.3447 27.8296C21.1896 27.7189 20.9603 27.7271 20.8167 27.8478L20 28.5334L19.181 27.8477C19.0371 27.7269 18.8082 27.7193 18.6533 27.8296L18.066 28.2475L15.558 29.0918C14.7503 29.3634 14.7511 31.7783 14.6816 32.0001H25.3173C25.248 31.779 25.2478 29.3631 24.4398 29.0918Z" fill="#ffffff"/>
</svg>
