<svg width="40" height="40" viewBox="0 0 40 40" fill="none" xmlns="http://www.w3.org/2000/svg">
<path d="M0 20C0 8.95431 8.95431 0 20 0V0C31.0457 0 40 8.95431 40 20V20C40 31.0457 31.0457 40 20 40V40C8.95431 40 0 31.0457 0 20V20Z" fill="#FF8500"/>
<path d="M32.6562 8H7.34375C6.72215 8 6.12601 8.28734 5.68647 8.7988C5.24693 9.31026 5 10.004 5 10.7273L5 29.2727C5 29.996 5.24693 30.6897 5.68647 31.2012C6.12601 31.7127 6.72215 32 7.34375 32H32.6562C33.2779 32 33.874 31.7127 34.3135 31.2012C34.7531 30.6897 35 29.996 35 29.2727V10.7273C35 10.004 34.7531 9.31026 34.3135 8.7988C33.874 8.28734 33.2779 8 32.6562 8ZM7.34375 10.7273H11.0938C11.0677 11.2664 10.9494 11.7941 10.7458 12.2794C10.5423 12.7646 10.2575 13.1978 9.90829 13.5534C9.55905 13.909 9.15233 14.1799 8.71196 14.3502C8.2716 14.5206 7.80644 14.587 7.34375 14.5455V10.7273ZM7.34375 29.2727V25.4545C7.80644 25.413 8.2716 25.4794 8.71196 25.6498C9.15233 25.8201 9.55905 26.091 9.90829 26.4466C10.2575 26.8022 10.5423 27.2354 10.7458 27.7206C10.9494 28.2059 11.0677 28.7336 11.0938 29.2727H7.34375ZM32.6562 29.2727H29C29.0533 28.2037 29.4675 27.2026 30.1523 26.4874C30.8372 25.7722 31.7372 25.4009 32.6562 25.4545V29.2727ZM32.6562 22.7273C31.8928 22.6982 31.132 22.8444 30.4172 23.1577C29.7024 23.4709 29.0476 23.9451 28.4904 24.553C27.9332 25.1608 27.4844 25.8906 27.1697 26.7004C26.8549 27.5103 26.6805 28.3844 26.6563 29.2727H13.3437C13.3195 28.3844 13.1451 27.5103 12.8303 26.7004C12.5156 25.8906 12.0668 25.1608 11.5096 24.553C10.9524 23.9451 10.2976 23.4709 9.58281 23.1577C8.86801 22.8444 8.10716 22.6982 7.34375 22.7273V17.2727C8.10716 17.3018 8.86801 17.1556 9.58281 16.8423C10.2976 16.5291 10.9524 16.0549 11.5096 15.447C12.0668 14.8392 12.5156 14.1094 12.8303 13.2996C13.1451 12.4897 13.3195 11.6156 13.3437 10.7273H26.6563C26.6805 11.6156 26.8549 12.4897 27.1697 13.2996C27.4844 14.1094 27.9332 14.8392 28.4904 15.447C29.0476 16.0549 29.7024 16.5291 30.4172 16.8423C31.132 17.1556 31.8928 17.3018 32.6562 17.2727V22.7273ZM32.6562 14.5455C31.7372 14.5991 30.8372 14.2278 30.1523 13.5126C29.4675 12.7974 29.0533 11.7963 29 10.7273H32.6562V14.5455Z" fill="#ffffff"/>
<path d="M19.998 13.4546C19.2346 13.4254 18.4738 13.5717 17.759 13.885C17.0442 14.1982 16.3894 14.6724 15.8322 15.2802C15.275 15.8881 14.8262 16.6179 14.5115 17.4277C14.1967 18.2376 14.0223 19.1117 13.998 20C14.0223 20.8884 14.1967 21.7625 14.5115 22.5723C14.8262 23.3822 15.275 24.1119 15.8322 24.7198C16.3894 25.3277 17.0442 25.8018 17.759 26.1151C18.4738 26.4283 19.2346 26.5746 19.998 26.5455C20.7615 26.5746 21.5223 26.4283 22.2371 26.1151C22.9519 25.8018 23.6066 25.3277 24.1639 24.7198C24.7211 24.1119 25.1699 23.3822 25.4846 22.5723C25.7994 21.7625 25.9738 20.8884 25.998 20C25.9738 19.1117 25.7994 18.2376 25.4846 17.4277C25.1699 16.6179 24.7211 15.8881 24.1639 15.2802C23.6066 14.6724 22.9519 14.1982 22.2371 13.885C21.5223 13.5717 20.7615 13.4254 19.998 13.4546ZM19.998 23.8182C19.079 23.8718 18.179 23.5006 17.4941 22.7854C16.8093 22.0702 16.3951 21.069 16.3418 20C16.3951 18.931 16.8093 17.9299 17.4941 17.2147C18.179 16.4995 19.079 16.1282 19.998 16.1818C20.4607 16.1403 20.9259 16.2067 21.3663 16.3771C21.8066 16.5474 22.2133 16.8183 22.5626 17.1739C22.9118 17.5295 23.1966 17.9626 23.4001 18.4479C23.6037 18.9332 23.722 19.4609 23.748 20C23.722 20.5392 23.6037 21.0668 23.4001 21.5521C23.1966 22.0374 22.9118 22.4705 22.5626 22.8261C22.2133 23.1817 21.8066 23.4526 21.3663 23.623C20.9259 23.7933 20.4607 23.8597 19.998 23.8182Z" fill="#ffffff"/>
</svg>
